<mxfile host="app.diagrams.net" modified="2023-03-24T15:37:08.482Z" agent="Mozilla/5.0 (Windows NT 10.0; Win64; x64) AppleWebKit/537.36 (KHTML, like Gecko) Chrome/111.0.0.0 Safari/537.36" etag="D_yFYiCqdMckCSa-EIlg" version="21.1.1" type="github">
  <diagram id="C5RBs43oDa-KdzZeNtuy" name="Page-1">
    <mxGraphModel dx="3990" dy="1965" grid="1" gridSize="10" guides="1" tooltips="1" connect="1" arrows="1" fold="1" page="1" pageScale="1" pageWidth="827" pageHeight="1169" math="0" shadow="0">
      <root>
        <mxCell id="WIyWlLk6GJQsqaUBKTNV-0" />
        <mxCell id="WIyWlLk6GJQsqaUBKTNV-1" parent="WIyWlLk6GJQsqaUBKTNV-0" />
        <mxCell id="WIyWlLk6GJQsqaUBKTNV-2" value="" style="rounded=0;html=1;jettySize=auto;orthogonalLoop=1;fontSize=11;endArrow=block;endFill=0;endSize=8;strokeWidth=1;shadow=0;labelBackgroundColor=none;edgeStyle=orthogonalEdgeStyle;" parent="WIyWlLk6GJQsqaUBKTNV-1" source="WIyWlLk6GJQsqaUBKTNV-3" edge="1">
          <mxGeometry relative="1" as="geometry">
            <mxPoint x="-1580" y="-1040" as="targetPoint" />
          </mxGeometry>
        </mxCell>
        <mxCell id="uIuwoKD3oRpLsHIUWo_T-0" value="Candles&lt;br&gt;" style="edgeLabel;html=1;align=center;verticalAlign=middle;resizable=0;points=[];fontStyle=1" vertex="1" connectable="0" parent="WIyWlLk6GJQsqaUBKTNV-2">
          <mxGeometry x="-0.0583" y="3" relative="1" as="geometry">
            <mxPoint as="offset" />
          </mxGeometry>
        </mxCell>
        <mxCell id="WIyWlLk6GJQsqaUBKTNV-3" value="fn getCandles" style="rounded=1;whiteSpace=wrap;html=1;fontSize=12;glass=0;strokeWidth=1;shadow=0;fontStyle=1" parent="WIyWlLk6GJQsqaUBKTNV-1" vertex="1">
          <mxGeometry x="-1770" y="-1130" width="120" height="40" as="geometry" />
        </mxCell>
        <mxCell id="uIuwoKD3oRpLsHIUWo_T-1" value="Batch Function&lt;br&gt;" style="text;html=1;align=center;verticalAlign=middle;resizable=0;points=[];autosize=1;strokeColor=none;fillColor=none;fontStyle=1" vertex="1" parent="WIyWlLk6GJQsqaUBKTNV-1">
          <mxGeometry x="-1940" y="-1160" width="110" height="30" as="geometry" />
        </mxCell>
        <mxCell id="uIuwoKD3oRpLsHIUWo_T-2" value="fn analyzeCandles(candles)" style="rounded=1;whiteSpace=wrap;html=1;fontSize=12;glass=0;strokeWidth=1;shadow=0;fontStyle=1" vertex="1" parent="WIyWlLk6GJQsqaUBKTNV-1">
          <mxGeometry x="-1660" y="-1040" width="160" height="40" as="geometry" />
        </mxCell>
        <mxCell id="uIuwoKD3oRpLsHIUWo_T-4" value="Has anything changed?" style="rhombus;whiteSpace=wrap;html=1;" vertex="1" parent="WIyWlLk6GJQsqaUBKTNV-1">
          <mxGeometry x="-1630" y="-950" width="100" height="90" as="geometry" />
        </mxCell>
        <mxCell id="uIuwoKD3oRpLsHIUWo_T-5" value="" style="endArrow=classic;html=1;rounded=0;entryX=0.5;entryY=0;entryDx=0;entryDy=0;exitX=0.5;exitY=1;exitDx=0;exitDy=0;" edge="1" parent="WIyWlLk6GJQsqaUBKTNV-1" source="uIuwoKD3oRpLsHIUWo_T-2" target="uIuwoKD3oRpLsHIUWo_T-4">
          <mxGeometry width="50" height="50" relative="1" as="geometry">
            <mxPoint x="-1600" y="-960" as="sourcePoint" />
            <mxPoint x="-1550" y="-1010" as="targetPoint" />
          </mxGeometry>
        </mxCell>
        <mxCell id="uIuwoKD3oRpLsHIUWo_T-6" value="" style="endArrow=classic;html=1;rounded=0;" edge="1" parent="WIyWlLk6GJQsqaUBKTNV-1" source="uIuwoKD3oRpLsHIUWo_T-4">
          <mxGeometry width="50" height="50" relative="1" as="geometry">
            <mxPoint x="-1410" y="-830" as="sourcePoint" />
            <mxPoint x="-1480" y="-810" as="targetPoint" />
          </mxGeometry>
        </mxCell>
        <mxCell id="uIuwoKD3oRpLsHIUWo_T-9" value="Yes&lt;br&gt;" style="edgeLabel;html=1;align=center;verticalAlign=middle;resizable=0;points=[];" vertex="1" connectable="0" parent="uIuwoKD3oRpLsHIUWo_T-6">
          <mxGeometry x="-0.431" y="1" relative="1" as="geometry">
            <mxPoint x="9" y="8" as="offset" />
          </mxGeometry>
        </mxCell>
        <mxCell id="uIuwoKD3oRpLsHIUWo_T-8" value="" style="endArrow=classic;html=1;rounded=0;exitX=0;exitY=1;exitDx=0;exitDy=0;entryX=0.69;entryY=0.003;entryDx=0;entryDy=0;entryPerimeter=0;" edge="1" parent="WIyWlLk6GJQsqaUBKTNV-1" source="uIuwoKD3oRpLsHIUWo_T-4" target="uIuwoKD3oRpLsHIUWo_T-12">
          <mxGeometry width="50" height="50" relative="1" as="geometry">
            <mxPoint x="-1660" y="-880" as="sourcePoint" />
            <mxPoint x="-1740" y="-830" as="targetPoint" />
          </mxGeometry>
        </mxCell>
        <mxCell id="uIuwoKD3oRpLsHIUWo_T-11" value="No&lt;br&gt;" style="edgeLabel;html=1;align=center;verticalAlign=middle;resizable=0;points=[];" vertex="1" connectable="0" parent="uIuwoKD3oRpLsHIUWo_T-8">
          <mxGeometry x="0.3669" y="1" relative="1" as="geometry">
            <mxPoint x="12" y="-14" as="offset" />
          </mxGeometry>
        </mxCell>
        <mxCell id="uIuwoKD3oRpLsHIUWo_T-12" value="return, run batch again after one minute, log that there was nothing to do&lt;br&gt;" style="rounded=1;whiteSpace=wrap;html=1;fontSize=12;glass=0;strokeWidth=1;shadow=0;fontStyle=1" vertex="1" parent="WIyWlLk6GJQsqaUBKTNV-1">
          <mxGeometry x="-1860" y="-820" width="170" height="80" as="geometry" />
        </mxCell>
        <mxCell id="uIuwoKD3oRpLsHIUWo_T-13" value="fn makeDecision()" style="rounded=1;whiteSpace=wrap;html=1;fontStyle=1" vertex="1" parent="WIyWlLk6GJQsqaUBKTNV-1">
          <mxGeometry x="-1530" y="-810" width="120" height="60" as="geometry" />
        </mxCell>
        <mxCell id="uIuwoKD3oRpLsHIUWo_T-14" value="" style="endArrow=classic;html=1;rounded=0;exitX=0.5;exitY=1;exitDx=0;exitDy=0;" edge="1" parent="WIyWlLk6GJQsqaUBKTNV-1" source="uIuwoKD3oRpLsHIUWo_T-13">
          <mxGeometry width="50" height="50" relative="1" as="geometry">
            <mxPoint x="-1500" y="-700" as="sourcePoint" />
            <mxPoint x="-1470" y="-670" as="targetPoint" />
          </mxGeometry>
        </mxCell>
        <mxCell id="uIuwoKD3oRpLsHIUWo_T-15" value="fn actor(decisions)" style="rounded=1;whiteSpace=wrap;html=1;fontStyle=1" vertex="1" parent="WIyWlLk6GJQsqaUBKTNV-1">
          <mxGeometry x="-1530" y="-670" width="120" height="60" as="geometry" />
        </mxCell>
      </root>
    </mxGraphModel>
  </diagram>
</mxfile>
